# xmcd CD database file
#
# Track frame offsets:
#	150
#	9071
#	32028
#	59094
#	86205
#	109586
#	140427
#	167636
#	190600
#	213304
#	241195
#	248376
#	265591
#	297419
#	314457
#
# Disc length: 4278 seconds
#
# Revision: 0
# Processed by: cddbd v1.5.2PL0 Copyright (c) Steve Scherf et al.
# Submitted via: CDex 1.70beta2
#
DISCID=c610b40f
DTITLE=Sueddeutsche Zeitung - Jazz - Crossing Lines
DYEAR=2011
DGENRE=Jazz
TTITLE0=Pierre Charial: Wagon 1
TTITLE1=Conlon Nancarrow: Study For Player Piano No. 3b
TTITLE2=Vijay Iyer: Freedom Jazz Dance
TTITLE3=Mathew Herbert/Nils Petter Molvær: Merciful (Herbert'S We Mix)
TTITLE4=DJ Spooky: It's A Mad Mad World
TTITLE5=UFO/Sarah Vaughan: Summertime
TTITLE6=DJ Jazzy Jeff/Duke Jordan: Night in Tunesia
TTITLE7=Monty Alexander: Chameleon
TTITLE8=Andy Narell and Relator: Gavaskar
TTITLE9=Bobby McFerrin: Circlesong 1
TTITLE10=Meredith Monk: Masks
TTITLE11=Zehnder Kraah Trio: Ade
TTITLE12=Eivind Aarset: Silk Worm
TTITLE13=Barbara Buchholz: Evocation
TTITLE14=Pascal Comelade: Ant‘ Waltz
EXTD=YEAR: 2011
EXTT0=
EXTT1=
EXTT2=
EXTT3=
EXTT4=
EXTT5=
EXTT6=
EXTT7=
EXTT8=
EXTT9=
EXTT10=
EXTT11=
EXTT12=
EXTT13=
EXTT14=
PLAYORDER=
